<svg xmlns="http://www.w3.org/2000/svg" viewBox="0 0 508 508"><defs><style>.cls-1{fill:#fff;}</style></defs><title>Configuração</title><g id="Camada_2" data-name="Camada 2"><g id="Camada_1-2" data-name="Camada 1"><path class="cls-1" d="M508,302.75v-99H395.66a147.68,147.68,0,0,0-6.42-15.34l79.19-79.19-70-70-79.22,79.22a149.47,149.47,0,0,0-15.95-6.61V0h-99V111.83a149.44,149.44,0,0,0-15.62,6.45L109.58,39.22l-70,70,78.84,78.85A151.54,151.54,0,0,0,112,203.25H0v99H111.16a151.11,151.11,0,0,0,7.26,17.68L39.58,398.78l70,70,79.06-79.06a146.91,146.91,0,0,0,16.12,6.62V508h99V396a149.57,149.57,0,0,0,15.45-6.43l79.22,79.22,70-70-79.19-79.19a144.17,144.17,0,0,0,6.93-16.84ZM254,337.5A83.5,83.5,0,1,1,337.5,254,83.5,83.5,0,0,1,254,337.5Z"/></g></g></svg>