<svg xmlns="http://www.w3.org/2000/svg" viewBox="0 0 459.75 419"><defs><style>.cls-1{fill:#fff;}</style></defs><title>sIMBOLO aLIMENTOS</title><g id="Camada_2" data-name="Camada 2"><g id="Camada_1-2" data-name="Camada 1"><path class="cls-1" d="M411.91,219.08C408.7,330,317.74,419,206,419,92.23,419,0,326.77,0,213S92.23,7,206,7c1.4,0,2.8,0,4.2,0h-.76C219,116.65,303.81,204.66,411.91,219.08Z"/><path class="cls-1" d="M459.75,214.09c-1.83,0-3.68.06-5.53.06a237.71,237.71,0,0,1-31.31-2.07C314.81,197.66,230,109.65,220.44.06h.76c1.59,0,3.17,0,4.77,0C348.64,0,449.33,94.12,459.75,214.09Z"/></g></g></svg>