<svg xmlns="http://www.w3.org/2000/svg" viewBox="0 0 423 423"><defs><style>.cls-1{fill:#fff;}</style></defs><title>icone de exito</title><g id="Camada_2" data-name="Camada 2"><g id="Camada_1-2" data-name="Camada 1"><g id="Camada_1-2-2" data-name="Camada 1-2"><path class="cls-1" d="M402.18,119.9,379,143.05A180.49,180.49,0,1,1,340,84.35l.8.81L362.5,63.42A210.8,210.8,0,0,0,211.5,0C94.69,0,0,94.69,0,211.5S94.69,423,211.5,423,423,328.31,423,211.5A210.49,210.49,0,0,0,402.18,119.9Z"/></g><polygon class="cls-1" points="421.86 74.76 393.28 103.34 370.83 125.79 192.5 304.13 73.14 184.76 95.76 162.14 192.5 258.88 399.24 52.14 421.86 74.76"/></g></g></svg>