<svg xmlns="http://www.w3.org/2000/svg" viewBox="0 0 410 580"><defs><style>.cls-1{fill:#fff;}.cls-2{fill:none;stroke:#000;stroke-miterlimit:10;stroke-width:5px;}</style></defs><title>Listas</title><g id="Camada_2" data-name="Camada 2"><g id="Camada_1-2" data-name="Camada 1"><rect class="cls-1" x="0.5" y="0.5" width="409" height="579" rx="52.68"/><path d="M356.82,1A52.24,52.24,0,0,1,409,53.18V526.82A52.24,52.24,0,0,1,356.82,579H53.18A52.24,52.24,0,0,1,1,526.82V53.18A52.24,52.24,0,0,1,53.18,1H356.82m0-1H53.18A53.18,53.18,0,0,0,0,53.18V526.82A53.18,53.18,0,0,0,53.18,580H356.82A53.18,53.18,0,0,0,410,526.82V53.18A53.18,53.18,0,0,0,356.82,0Z"/><rect class="cls-1" x="54.5" y="78.5" width="143" height="143" rx="18.65"/><path d="M178.85,81A16.17,16.17,0,0,1,195,97.15v105.7A16.17,16.17,0,0,1,178.85,219H73.15A16.17,16.17,0,0,1,57,202.85V97.15A16.17,16.17,0,0,1,73.15,81h105.7m0-5H73.15A21.15,21.15,0,0,0,52,97.15v105.7A21.15,21.15,0,0,0,73.15,224h105.7A21.15,21.15,0,0,0,200,202.85V97.15A21.15,21.15,0,0,0,178.85,76Z"/><line class="cls-2" x1="51.5" y1="321.5" x2="367.5" y2="321.5"/><line class="cls-2" x1="52" y1="382.5" x2="368" y2="382.5"/><line class="cls-2" x1="51.5" y1="443.5" x2="367.5" y2="443.5"/><line class="cls-2" x1="52" y1="504.5" x2="368" y2="504.5"/></g></g></svg>