<svg xmlns="http://www.w3.org/2000/svg" viewBox="0 0 557 557"><defs><style>.cls-1{fill:#fff;}</style></defs><title>Símbolo de alerta</title><g id="Camada_2" data-name="Camada 2"><g id="Camada_1-2" data-name="Camada 1"><path class="cls-1" d="M278.5,0C124.69,0,0,124.69,0,278.5S124.69,557,278.5,557,557,432.31,557,278.5,432.31,0,278.5,0ZM447.14,447.14a237.64,237.64,0,1,1,51.13-75.82A237.68,237.68,0,0,1,447.14,447.14Z"/><path class="cls-1" d="M278.5,366.54c-13.57,0-23.55,10.48-23.55,25,0,14.1,9.58,25,23.55,25,14.36,0,23.54-10.88,23.54-25C302,377,292.86,366.54,278.5,366.54Z"/><polygon class="cls-1" points="297.65 140.48 292.07 333.9 264.93 333.9 259.34 140.48 297.65 140.48"/></g></g></svg>