<svg xmlns="http://www.w3.org/2000/svg" viewBox="0 0 723 205.43"><defs><style>.cls-1{fill:#e5cf00;}</style></defs><title>3 ESTRELAS</title><g id="Camada_2" data-name="Camada 2"><g id="Camada_1-2" data-name="Camada 1"><polygon class="cls-1" points="108 0 141.37 67.62 216 78.47 162 131.1 174.75 205.43 108 170.34 41.25 205.43 54 131.1 0 78.47 74.63 67.62 108 0"/><polygon class="cls-1" points="361.5 0 394.87 67.62 469.5 78.47 415.5 131.1 428.25 205.43 361.5 170.34 294.75 205.43 307.5 131.1 253.5 78.47 328.13 67.62 361.5 0"/><polygon class="cls-1" points="615 0 648.37 67.62 723 78.47 669 131.1 681.75 205.43 615 170.34 548.25 205.43 561 131.1 507 78.47 581.63 67.62 615 0"/></g></g></svg>