<svg xmlns="http://www.w3.org/2000/svg" viewBox="0 0 723 205.43"><defs><style>.cls-1{fill:#e5cf00}</style></defs><title>3 ESTRELAS</title><g id="Camada_2" data-name="Camada 2"><g id="Camada_1-2" data-name="Camada 1"><path class="cls-1" d="M108 0l33.37 67.62L216 78.47l-54 52.63 12.75 74.33L108 170.34l-66.75 35.09L54 131.1 0 78.47l74.63-10.85L108 0zM361.5 0l33.37 67.62 74.63 10.85-54 52.63 12.75 74.33-66.75-35.09-66.75 35.09 12.75-74.33-54-52.63 74.63-10.85L361.5 0zM615 0l33.37 67.62L723 78.47l-54 52.63 12.75 74.33L615 170.34l-66.75 35.09L561 131.1l-54-52.63 74.63-10.85L615 0z"/></g></g></svg>