<svg id="Camada_1" xmlns="http://www.w3.org/2000/svg" viewBox="0 0 674 590"><style>.st0{fill:#fff}</style><path class="st0" d="M172 43.5v127c0 9.1-7.4 16.5-16.5 16.5s-16.5-7.4-16.5-16.5v-127c0-9.1 7.4-16.5 16.5-16.5S172 34.4 172 43.5zM544 43.5v127c0 8.6-6.9 15.5-15.5 15.5s-15.5-6.9-15.5-15.5v-127c0-8.6 6.9-15.5 15.5-15.5S544 34.9 544 43.5z"/><path class="st0" d="M598.3 99.5H554v71c0 14.1-11.4 25.5-25.5 25.5S503 184.6 503 170.5v-71H182v71c0 14.6-11.9 26.5-26.5 26.5S129 185.1 129 170.5v-71H75.7c-20.8 0-37.7 16.9-37.7 37.7v364.6c0 20.8 16.9 37.7 37.7 37.7h522.6c20.8 0 37.7-16.9 37.7-37.7V137.2c0-20.8-16.9-37.7-37.7-37.7zM309.7 431.8c-.3 1.2-.7 2.4-1.3 3.5-.5.8-1.1 1.5-1.9 1.9-.7.4-1.5.6-2.3.6h-113c-.8 0-1.5-.2-2.2-.6-.8-.5-1.4-1.2-1.9-1.9-.7-1.1-1.2-2.3-1.4-3.5-.4-1.8-.5-3.6-.5-5.4 0-1.7.1-3.5.5-5.2.3-1.2.7-2.5 1.3-3.6.4-.9 1.1-1.6 1.8-2.2.7-.5 1.6-.8 2.4-.8h45.1V250.2l-41.8 24.9c-1.6.9-3.3 1.6-5.1 2-1.1.3-2.2 0-3.1-.8-.9-1-1.5-2.3-1.6-3.6-.3-2.1-.5-4.2-.4-6.4 0-1.6.1-3.2.3-4.8.1-1.1.4-2.3.8-3.4.3-.9.8-1.7 1.4-2.3.7-.8 1.5-1.4 2.4-2l49.9-31.9c.5-.4 1.1-.6 1.7-.8.7-.2 1.5-.4 2.5-.7 1.2-.2 2.3-.4 3.5-.4 1.3-.1 3-.1 5-.1 2.2 0 4.5.1 6.7.3 1.4.1 2.8.4 4.2.9.8.2 1.5.8 2 1.5.3.6.5 1.2.5 1.9v190.1h39.1c.9 0 1.8.3 2.5.8.8.5 1.5 1.3 1.9 2.2.6 1.1 1 2.3 1.2 3.6.2 1.7.3 3.4.3 5.2 0 1.8-.1 3.6-.5 5.4zm166.6-32.7c-3.7 8.8-9.4 16.6-16.5 22.8-7.5 6.4-16.1 11.2-25.5 14.1-10.6 3.3-21.7 5-32.9 4.9-6.4 0-12.8-.5-19.1-1.4-5.4-.8-10.8-2-16-3.5-3.9-1.1-7.8-2.5-11.5-4.1-2.1-.8-4-1.9-5.8-3.2-.7-.6-1.3-1.4-1.8-2.2-.4-.8-.7-1.6-.9-2.4-.3-1.2-.5-2.4-.6-3.6-.1-1.5-.2-3.2-.2-5.2 0-1.7.1-3.4.3-5.1.1-1.3.4-2.5.9-3.7.3-.8.9-1.5 1.6-2.1.6-.4 1.3-.7 2.1-.7 1.1 0 2.8.7 5.2 2.1 3 1.7 6.2 3.2 9.4 4.5 4.8 1.9 9.7 3.4 14.7 4.6 6.8 1.5 13.8 2.3 20.8 2.2 6.9.1 13.9-.8 20.6-2.7 5.9-1.6 11.4-4.5 16.1-8.4 4.6-3.9 8.2-8.8 10.6-14.3 2.6-5.7 3.8-12.7 3.9-21 .1-6.3-1-12.5-3.3-18.3-2.1-5.2-5.6-9.8-10-13.2-5.1-3.8-11-6.5-17.2-7.8-8.1-1.9-16.4-2.7-24.7-2.6-5.9-.1-11.7.3-17.5 1-4.5.6-9.1 1-13.7 1-3.1 0-5.4-.7-6.7-2.2-1.3-1.5-2-4.2-2-8.4v-88.1c0-3.7.9-6.4 2.6-8.2 1.7-1.8 4.2-2.7 7.4-2.7h95.8c.9 0 1.8.3 2.6.8.9.6 1.6 1.3 2.1 2.3.6 1.2 1.1 2.5 1.3 3.8.3 1.8.4 3.7.4 5.5 0 4-.5 7.1-1.6 9.4-1.1 2.3-2.6 3.3-4.5 3.3h-77.3V307c3.8-.6 7.7-.9 11.5-1 3.9-.1 8.5-.2 13.6-.2 11.9 0 22.3 1.5 31.2 4.4 8.2 2.6 15.8 6.8 22.3 12.5 6 5.4 10.6 12.1 13.5 19.6 3.2 8.5 4.8 17.2 4.7 25.9 0 11.6-2 21.9-5.9 30.9z"/></svg>