<?xml version="1.0" encoding="utf-8"?>
<!-- Generator: Adobe Illustrator 24.0.1, SVG Export Plug-In . SVG Version: 6.00 Build 0)  -->
<svg version="1.1" id="Camada_1" xmlns="http://www.w3.org/2000/svg" xmlns:xlink="http://www.w3.org/1999/xlink" x="0px" y="0px"
	 viewBox="0 0 674 590" style="enable-background:new 0 0 674 590;" xml:space="preserve">
<style type="text/css">
	.st0{fill:#FFFFFF;}
</style>
<g>
	<g>
		<path class="st0" d="M172,43.5v127c0,9.1-7.4,16.5-16.5,16.5s-16.5-7.4-16.5-16.5v-127c0-9.1,7.4-16.5,16.5-16.5
			S172,34.4,172,43.5z"/>
	</g>
	<g>
		<path class="st0" d="M544,43.5v127c0,8.6-6.9,15.5-15.5,15.5s-15.5-6.9-15.5-15.5v-127c0-8.6,6.9-15.5,15.5-15.5
			S544,34.9,544,43.5z"/>
	</g>
	<g>
		<path class="st0" d="M598.3,99.5H554v71c0,14.1-11.4,25.5-25.5,25.5S503,184.6,503,170.5v-71H182v71c0,14.6-11.9,26.5-26.5,26.5
			S129,185.1,129,170.5v-71H75.7c-20.8,0-37.7,16.9-37.7,37.7v364.6c0,20.8,16.9,37.7,37.7,37.7h522.6c20.8,0,37.7-16.9,37.7-37.7
			V137.2C636,116.4,619.1,99.5,598.3,99.5z M309.7,431.8c-0.3,1.2-0.7,2.4-1.3,3.5c-0.5,0.8-1.1,1.5-1.9,1.9
			c-0.7,0.4-1.5,0.6-2.3,0.6h-113c-0.8,0-1.5-0.2-2.2-0.6c-0.8-0.5-1.4-1.2-1.9-1.9c-0.7-1.1-1.2-2.3-1.4-3.5
			c-0.4-1.8-0.5-3.6-0.5-5.4c0-1.7,0.1-3.5,0.5-5.2c0.3-1.2,0.7-2.5,1.3-3.6c0.4-0.9,1.1-1.6,1.8-2.2c0.7-0.5,1.6-0.8,2.4-0.8h45.1
			V250.2l-41.8,24.9c-1.6,0.9-3.3,1.6-5.1,2c-1.1,0.3-2.2,0-3.1-0.8c-0.9-1-1.5-2.3-1.6-3.6c-0.3-2.1-0.5-4.2-0.4-6.4
			c0-1.6,0.1-3.2,0.3-4.8c0.1-1.1,0.4-2.3,0.8-3.4c0.3-0.9,0.8-1.7,1.4-2.3c0.7-0.8,1.5-1.4,2.4-2l49.9-31.9
			c0.5-0.4,1.1-0.6,1.7-0.8c0.7-0.2,1.5-0.4,2.5-0.7c1.2-0.2,2.3-0.4,3.5-0.4c1.3-0.1,3-0.1,5-0.1c2.2,0,4.5,0.1,6.7,0.3
			c1.4,0.1,2.8,0.4,4.2,0.9c0.8,0.2,1.5,0.8,2,1.5c0.3,0.6,0.5,1.2,0.5,1.9v190.1h39.1c0.9,0,1.8,0.3,2.5,0.8
			c0.8,0.5,1.5,1.3,1.9,2.2c0.6,1.1,1,2.3,1.2,3.6c0.2,1.7,0.3,3.4,0.3,5.2C310.2,428.2,310.1,430,309.7,431.8z M476.3,399.1
			c-3.7,8.8-9.4,16.6-16.5,22.8c-7.5,6.4-16.1,11.2-25.5,14.1c-10.6,3.3-21.7,5-32.9,4.9c-6.4,0-12.8-0.5-19.1-1.4
			c-5.4-0.8-10.8-2-16-3.5c-3.9-1.1-7.8-2.5-11.5-4.1c-2.1-0.8-4-1.9-5.8-3.2c-0.7-0.6-1.3-1.4-1.8-2.2c-0.4-0.8-0.7-1.6-0.9-2.4
			c-0.3-1.2-0.5-2.4-0.6-3.6c-0.1-1.5-0.2-3.2-0.2-5.2c0-1.7,0.1-3.4,0.3-5.1c0.1-1.3,0.4-2.5,0.9-3.7c0.3-0.8,0.9-1.5,1.6-2.1
			c0.6-0.4,1.3-0.7,2.1-0.7c1.1,0,2.8,0.7,5.2,2.1c3,1.7,6.2,3.2,9.4,4.5c4.8,1.9,9.7,3.4,14.7,4.6c6.8,1.5,13.8,2.3,20.8,2.2
			c6.9,0.1,13.9-0.8,20.6-2.7c5.9-1.6,11.4-4.5,16.1-8.4c4.6-3.9,8.2-8.8,10.6-14.3c2.6-5.7,3.8-12.7,3.9-21
			c0.1-6.3-1-12.5-3.3-18.3c-2.1-5.2-5.6-9.8-10-13.2c-5.1-3.8-11-6.5-17.2-7.8c-8.1-1.9-16.4-2.7-24.7-2.6
			c-5.9-0.1-11.7,0.3-17.5,1c-4.5,0.6-9.1,1-13.7,1c-3.1,0-5.4-0.7-6.7-2.2c-1.3-1.5-2-4.2-2-8.4v-88.1c0-3.7,0.9-6.4,2.6-8.2
			c1.7-1.8,4.2-2.7,7.4-2.7h95.8c0.9,0,1.8,0.3,2.6,0.8c0.9,0.6,1.6,1.3,2.1,2.3c0.6,1.2,1.1,2.5,1.3,3.8c0.3,1.8,0.4,3.7,0.4,5.5
			c0,4-0.5,7.1-1.6,9.4c-1.1,2.3-2.6,3.3-4.5,3.3h-77.3V307c3.8-0.6,7.7-0.9,11.5-1c3.9-0.1,8.5-0.2,13.6-0.2
			c11.9,0,22.3,1.5,31.2,4.4c8.2,2.6,15.8,6.8,22.3,12.5c6,5.4,10.6,12.1,13.5,19.6c3.2,8.5,4.8,17.2,4.7,25.9
			C482.2,379.8,480.2,390.1,476.3,399.1z"/>
	</g>
</g>
</svg>
