<?xml version="1.0" encoding="utf-8"?>
<!-- Generator: Adobe Illustrator 24.0.1, SVG Export Plug-In . SVG Version: 6.00 Build 0)  -->
<svg version="1.1" id="Camada_1" xmlns="http://www.w3.org/2000/svg" xmlns:xlink="http://www.w3.org/1999/xlink" x="0px" y="0px"
	 viewBox="0 0 413.9 440" style="enable-background:new 0 0 413.9 440;" xml:space="preserve">
<style type="text/css">
	.st0{fill:#FFFFFF;}
</style>
<title>Ativo 2</title>
<g id="Camada_2_1_">
	<g id="Camada_1-2">
		<path class="st0" d="M412,13.9L269.7,193.1c-1.2,1.5-1.9,3.4-1.9,5.4v200.2c0,3.8-2.5,7.1-6.1,8.2l-105.8,32.7
			c-4.5,1.4-9.3-1.1-10.7-5.7c-0.3-0.8-0.4-1.7-0.4-2.5V196.8c0-1.9-0.7-3.8-1.9-5.4L1.9,13.9C-1,10.2-0.4,4.8,3.3,1.8
			C4.8,0.7,6.7,0,8.6,0h396.7c4.7,0,8.6,3.9,8.6,8.6C413.9,10.5,413.2,12.4,412,13.9z"/>
	</g>
</g>
</svg>
