<svg id="Camada_1" xmlns="http://www.w3.org/2000/svg" viewBox="0 0 362 528"><style>.st0{fill:#fff}</style><path class="st0" d="M272.4 100.5H89.6c-12.4 0-22.6 10.1-22.6 22.6V405c0 12.4 10.1 22.6 22.6 22.6h182.8c12.4 0 22.6-10.1 22.6-22.6V123.1c0-12.5-10.2-22.6-22.6-22.6zm-84 244.8c-1.1.2-1.9 1.1-1.9 2.2v21.6c0 1.2-1 2.2-2.2 2.2h-5.5c-1.2 0-2.2-1-2.2-2.2v-21c0-1.2-.9-2.1-2.1-2.2-24.7-1.2-43-15.2-44.3-35.6 0-.4 0-.8.2-1.1 2.2-4.7 5.6-7.2 10.9-7.2 5.9 0 11.4 3.2 14.4 16.4l2.7 12.2c.2.9.8 1.5 1.7 1.7 4.7.9 9.4 1.5 14.2 1.7 1.3.1 2.3-1 2.3-2.2v-57.6c0-1-.6-1.8-1.5-2.1l-1.8-.6c-26.1-9.1-41.5-22.6-41.5-47.4 0-23.5 17.7-42.3 43-44.9 1.2-.1 2-1.1 2-2.2v-18.1c0-1.2 1-2.2 2.2-2.2h5.6c1.2 0 2.2 1 2.2 2.2v18.4c0 1.1.8 2.1 1.9 2.2 21.2 2.6 37.2 16.3 38.8 35.2 0 .4-.1.8-.2 1.1-2 4.9-6.1 7.2-10.7 7.2-5.5 0-11.7-3.5-14.7-16.4l-2.8-12.3c-.2-.9-.9-1.5-1.7-1.7-2.7-.6-5.5-1-8.3-1.2-1.3-.1-2.4.9-2.4 2.2v56.8c0 1 .6 1.8 1.5 2.1 33.5 11.6 43.7 27.8 43.7 48 0 23.7-16.1 41.2-43.5 44.8z"/><path class="st0" d="M176.8 194.3v51.1c0 1.5-1.6 2.6-3 2.1-14.5-5.7-22.6-14.2-22.6-28.5 0-15.2 9.5-24.2 23-26.9 1.4-.3 2.6.8 2.6 2.2zM212.5 305.4c0 15.1-8.9 24.9-23.4 27.9-1.4.2-2.6-.9-2.6-2.3v-51.5c0-1.6 1.6-2.6 3-2 16.1 6.7 23 14.1 23 27.9z"/></svg>