<?xml version="1.0" encoding="utf-8"?>
<!-- Generator: Adobe Illustrator 24.0.1, SVG Export Plug-In . SVG Version: 6.00 Build 0)  -->
<svg version="1.1" id="Camada_1" xmlns="http://www.w3.org/2000/svg" xmlns:xlink="http://www.w3.org/1999/xlink" x="0px" y="0px"
	 viewBox="0 0 362 528" style="enable-background:new 0 0 362 528;" xml:space="preserve">
<style type="text/css">
	.st0{fill:#FFFFFF;}
</style>
<g>
	<path class="st0" d="M272.4,100.5H89.6c-12.4,0-22.6,10.1-22.6,22.6V405c0,12.4,10.1,22.6,22.6,22.6h182.8
		c12.4,0,22.6-10.1,22.6-22.6V123.1C295,110.6,284.8,100.5,272.4,100.5z M188.4,345.3c-1.1,0.2-1.9,1.1-1.9,2.2v21.6
		c0,1.2-1,2.2-2.2,2.2h-5.5c-1.2,0-2.2-1-2.2-2.2v-21c0-1.2-0.9-2.1-2.1-2.2c-24.7-1.2-43-15.2-44.3-35.6c0-0.4,0-0.8,0.2-1.1
		c2.2-4.7,5.6-7.2,10.9-7.2c5.9,0,11.4,3.2,14.4,16.4l2.7,12.2c0.2,0.9,0.8,1.5,1.7,1.7c4.7,0.9,9.4,1.5,14.2,1.7
		c1.3,0.1,2.3-1,2.3-2.2v-57.6c0-1-0.6-1.8-1.5-2.1l-1.8-0.6c-26.1-9.1-41.5-22.6-41.5-47.4c0-23.5,17.7-42.3,43-44.9
		c1.2-0.1,2-1.1,2-2.2v-18.1c0-1.2,1-2.2,2.2-2.2h5.6c1.2,0,2.2,1,2.2,2.2v18.4c0,1.1,0.8,2.1,1.9,2.2c21.2,2.6,37.2,16.3,38.8,35.2
		c0,0.4-0.1,0.8-0.2,1.1c-2,4.9-6.1,7.2-10.7,7.2c-5.5,0-11.7-3.5-14.7-16.4l-2.8-12.3c-0.2-0.9-0.9-1.5-1.7-1.7
		c-2.7-0.6-5.5-1-8.3-1.2c-1.3-0.1-2.4,0.9-2.4,2.2v56.8c0,1,0.6,1.8,1.5,2.1c33.5,11.6,43.7,27.8,43.7,48
		C231.9,324.2,215.8,341.7,188.4,345.3z"/>
	<path class="st0" d="M176.8,194.3v51.1c0,1.5-1.6,2.6-3,2.1c-14.5-5.7-22.6-14.2-22.6-28.5c0-15.2,9.5-24.2,23-26.9
		C175.6,191.8,176.8,192.9,176.8,194.3z"/>
	<path class="st0" d="M212.5,305.4c0,15.1-8.9,24.9-23.4,27.9c-1.4,0.2-2.6-0.9-2.6-2.3v-51.5c0-1.6,1.6-2.6,3-2
		C205.6,284.2,212.5,291.6,212.5,305.4z"/>
</g>
</svg>
