<svg xmlns="http://www.w3.org/2000/svg" viewBox="0 0 356.25 358.4"><defs><style>.cls-1{fill:#fff;}</style></defs><title>Icone Garfo e Faca</title><g id="Camada_2" data-name="Camada 2"><g id="Camada_1-2" data-name="Camada 1"><path class="cls-1" d="M141.2,58.15l33.23,33.23c7.16,7.16,5.4,17,0,25.94-2,3.35-1,5.93-1,5.93l172.17,173a36.22,36.22,0,0,1-51.22,51.22L121.89,174.1s-2.16-1.34-3.82-.43c-8.86,4.89-18.77,7.16-25.94,0l-34-34a14.49,14.49,0,0,1-2.34-1.91L0,82l18.6-18.6,56.74,56.74L88.45,107l-56-56,18.6-18.6,56,56,13.82-13.82-56-56L83.49,0,139.3,55.81Z"/><path class="cls-1" d="M328.37,17.72,46.59,299.5a34.51,34.51,0,0,0,0,48.79h0a34.51,34.51,0,0,0,48.79,0l110-110,17.32,17.32L328.37,150A93.49,93.49,0,0,0,328.37,17.72Z"/></g></g></svg>