<svg xmlns="http://www.w3.org/2000/svg" viewBox="0 0 538 538"><defs><style>.cls-1{fill:#fff}</style></defs><title>icone de adicionar</title><g id="Camada_2" data-name="Camada 2"><path class="cls-1" d="M538 224.7v88.6a9.2 9.2 0 0 1-9.2 9.2H331.7a9.2 9.2 0 0 0-9.2 9.2v197.1a9.2 9.2 0 0 1-9.2 9.2h-88.6a9.2 9.2 0 0 1-9.2-9.2V331.7a9.2 9.2 0 0 0-9.2-9.2H9.2a9.2 9.2 0 0 1-9.2-9.2v-88.6a9.2 9.2 0 0 1 9.2-9.2h197.1a9.2 9.2 0 0 0 9.2-9.2V9.2a9.2 9.2 0 0 1 9.2-9.2h88.6a9.2 9.2 0 0 1 9.2 9.2v197.1a9.2 9.2 0 0 0 9.2 9.2h197.1a9.2 9.2 0 0 1 9.2 9.2z" id="Camada_1-2" data-name="Camada 1"/></g></svg>