<svg xmlns="http://www.w3.org/2000/svg" viewBox="0 0 410 580"><defs><style>.cls-1{fill:#fff;}</style></defs><title>Icone de Lista</title><g id="Camada_2" data-name="Camada 2"><g id="Camada_1-2" data-name="Camada 1"><path class="cls-1" d="M356.82,0H53.18A53.18,53.18,0,0,0,0,53.18V526.82A53.18,53.18,0,0,0,53.18,580H356.82A53.18,53.18,0,0,0,410,526.82V53.18A53.18,53.18,0,0,0,356.82,0ZM52,97.15A21.15,21.15,0,0,1,73.15,76h105.7A21.15,21.15,0,0,1,200,97.15v105.7A21.15,21.15,0,0,1,178.85,224H73.15A21.15,21.15,0,0,1,52,202.85ZM51.5,311.5h316v20H51.5Zm0,122h316v20H51.5Zm316.5,81H52v-20H368Zm0-122H52v-20H368Z"/></g></g></svg>