<svg xmlns="http://www.w3.org/2000/svg" viewBox="0 0 423 423"><defs><style>.cls-1{fill:#fff}</style></defs><title>icone de exito</title><g id="Camada_2" data-name="Camada 2"><g id="Camada_1-2" data-name="Camada 1"><path class="cls-1" d="M402.18 119.9L379 143.05a180.49 180.49 0 1 1-39-58.7l.8.81 21.7-21.74A210.8 210.8 0 0 0 211.5 0C94.69 0 0 94.69 0 211.5S94.69 423 211.5 423 423 328.31 423 211.5a210.49 210.49 0 0 0-20.82-91.6z" id="Camada_1-2-2" data-name="Camada 1-2"/><path class="cls-1" d="M421.86 74.76l-28.58 28.58-22.45 22.45L192.5 304.13 73.14 184.76l22.62-22.62 96.74 96.74L399.24 52.14l22.62 22.62z"/></g></g></svg>