<svg xmlns="http://www.w3.org/2000/svg" viewBox="0 0 410 580"><defs><style>.cls-1{fill:#fff}</style></defs><title>Icone de Lista</title><g id="Camada_2" data-name="Camada 2"><path class="cls-1" d="M356.82 0H53.18A53.18 53.18 0 0 0 0 53.18v473.64A53.18 53.18 0 0 0 53.18 580h303.64A53.18 53.18 0 0 0 410 526.82V53.18A53.18 53.18 0 0 0 356.82 0zM52 97.15A21.15 21.15 0 0 1 73.15 76h105.7A21.15 21.15 0 0 1 200 97.15v105.7A21.15 21.15 0 0 1 178.85 224H73.15A21.15 21.15 0 0 1 52 202.85zm-.5 214.35h316v20h-316zm0 122h316v20h-316zm316.5 81H52v-20h316zm0-122H52v-20h316z" id="Camada_1-2" data-name="Camada 1"/></g></svg>