<?xml version="1.0" encoding="utf-8"?>
<!-- Generator: Adobe Illustrator 24.0.1, SVG Export Plug-In . SVG Version: 6.00 Build 0)  -->
<svg version="1.1" id="Camada_1" xmlns="http://www.w3.org/2000/svg" xmlns:xlink="http://www.w3.org/1999/xlink" x="0px" y="0px"
	 viewBox="0 0 484 484" style="enable-background:new 0 0 484 484;" xml:space="preserve">
<style type="text/css">
	.st0{fill:#FFFFFF;}
</style>
<title>Inativar</title>
<g id="Camada_2_1_">
	<g id="Camada_1-2">
		<path class="st0" d="M242,0C108.3,0,0,108.3,0,242s108.3,242,242,242s242-108.3,242-242S375.7,0,242,0z M95.5,337.8
			c-0.6-1-1.2-1.9-1.8-2.9c-0.6-0.9-1.2-1.9-1.8-2.9c-0.5-0.8-1-1.7-1.5-2.5c-0.5-0.9-1.1-1.9-1.6-2.8c0,0,0,0,0-0.1
			c-0.5-0.9-1-1.9-1.5-2.9c-0.5-1-1-1.9-1.5-2.9c-0.5-1-1-2-1.5-2.9c-0.7-1.4-1.3-2.8-2-4.3c-0.1-0.2-0.2-0.4-0.2-0.5
			c-0.6-1.3-1.2-2.7-1.8-4.1c0,0,0-0.1-0.1-0.1c-0.6-1.4-1.1-2.7-1.6-4.1c-0.5-1.3-1-2.6-1.4-3.9c-0.3-0.7-0.5-1.5-0.8-2.2
			c-0.5-1.4-0.9-2.8-1.4-4.2c-0.2-0.7-0.4-1.3-0.6-2c-0.2-0.7-0.4-1.4-0.6-2.1c-0.5-1.7-0.9-3.4-1.4-5.1c0-0.2-0.1-0.3-0.1-0.5
			C68.8,270.9,67,256.5,67,242c0-8,0.5-15.8,1.6-23.4c0.2-1.3,0.4-2.6,0.6-3.9c0.2-1.5,0.5-2.9,0.7-4.3c0.3-1.5,0.6-3,0.9-4.5
			c0-0.2,0.1-0.5,0.2-0.7c0.3-1.6,0.7-3.2,1.1-4.7c0.7-2.8,1.4-5.6,2.3-8.3c0.4-1.5,0.9-2.9,1.4-4.3c0.1-0.2,0.2-0.4,0.2-0.7
			c0.3-0.9,0.6-1.9,1-2.8c0.1-0.4,0.3-0.8,0.4-1.3c0-0.1,0-0.1,0.1-0.2c0-0.1,0.1-0.2,0.1-0.3c14.8-40.8,44.3-74.6,82.1-94.9
			c1.3-0.7,2.6-1.4,4-2.1c0.5-0.3,1-0.5,1.5-0.8c0.8-0.4,1.6-0.8,2.5-1.2c0,0,0,0,0,0c1.4-0.7,2.9-1.3,4.3-2c2-0.9,3.9-1.7,5.9-2.5
			c0.7-0.3,1.3-0.5,2-0.8c0.7-0.3,1.3-0.5,2-0.8c0.7-0.3,1.3-0.5,2-0.7c0.7-0.2,1.3-0.5,2-0.7c0.7-0.2,1.3-0.5,2-0.7
			c0.7-0.2,1.4-0.4,2-0.7c0.7-0.2,1.3-0.4,2-0.6c0.1,0,0.1-0.1,0.2-0.1c1.3-0.4,2.6-0.8,4-1.1c0,0,0,0,0.1,0
			c0.6-0.2,1.3-0.3,1.9-0.5c1.5-0.4,2.9-0.7,4.4-1.1c2.1-0.5,4.3-0.9,6.4-1.3c0.7-0.1,1.4-0.3,2.2-0.4c0.8-0.1,1.6-0.3,2.5-0.4
			c1.6-0.3,3.2-0.5,4.8-0.7c0.6-0.1,1.2-0.2,1.8-0.2c1.3-0.2,2.7-0.3,4-0.5c1-0.1,1.9-0.2,2.9-0.3c0.4,0,0.9-0.1,1.3-0.1
			c2.1-0.2,4.2-0.3,6.3-0.4c0,0,0.1,0,0.1,0c2.4-0.1,4.8-0.1,7.2-0.1c1.4,0,2.7,0,4.1,0c0.1,0,0.2,0,0.3,0c4,0.1,7.9,0.3,11.8,0.7
			c0.3,0,0.6,0,0.8,0.1c1.2,0.1,2.4,0.2,3.6,0.4c0.3,0,0.7,0.1,1,0.1c2.3,0.3,4.6,0.6,6.9,1c0.3,0,0.5,0.1,0.8,0.1
			c1.1,0.2,2.2,0.4,3.4,0.6c0.5,0.1,1,0.2,1.5,0.3c3.4,0.7,6.8,1.5,10.2,2.4c0.7,0.2,1.3,0.4,2,0.5c0.9,0.3,1.9,0.5,2.8,0.8
			c1.1,0.3,2.2,0.6,3.2,1c1,0.3,2,0.7,3.1,1c1,0.3,2,0.7,3,1c0.6,0.2,1.3,0.5,1.9,0.7c1.6,0.6,3.2,1.2,4.8,1.8c0,0,0.1,0,0.2,0.1
			c2.3,0.9,4.5,1.9,6.8,2.9c0,0,0,0,0.1,0c0.7,0.3,1.5,0.7,2.2,1c0,0,0,0,0,0c0.8,0.4,1.5,0.7,2.2,1.1c0.2,0.1,0.4,0.2,0.6,0.3
			c0.8,0.4,1.5,0.7,2.2,1.1c0.8,0.4,1.5,0.8,2.2,1.2c1,0.5,1.9,1,2.9,1.6c1,0.5,1.9,1.1,2.8,1.6c3.8,2.2,7.5,4.5,11.1,7L97.4,340.6
			C96.8,339.7,96.1,338.7,95.5,337.8z M416.6,253.7c-0.1,1.3-0.2,2.6-0.3,4c-0.1,1-0.2,2-0.3,2.9c-0.1,0.8-0.2,1.7-0.3,2.5
			c0,0.4-0.1,0.8-0.1,1.2c-0.2,1.2-0.3,2.4-0.5,3.6c-2.3,15.3-6.6,30.4-12.9,44.6c-0.4,1-0.8,1.9-1.3,2.8c-0.4,0.8-0.7,1.6-1.1,2.4
			c-0.2,0.4-0.4,0.9-0.6,1.3c-0.8,1.5-1.5,3-2.3,4.6c-10.5,20.1-25.1,38.3-43.5,53.4c-0.5,0.5-1.1,0.9-1.6,1.3
			c-1.1,0.9-2.3,1.8-3.4,2.7c-0.5,0.4-1,0.8-1.5,1.1c-1.3,1-2.5,1.9-3.8,2.8c-0.8,0.5-1.5,1.1-2.3,1.6
			C311.6,406.4,277.2,417,242,417c-1.2,0-2.4,0-3.6,0c-1,0-2.1,0-3.1-0.1c-2.3-0.1-4.7-0.2-7-0.4c-0.9-0.1-1.8-0.1-2.7-0.2
			c-23.9-2.2-47.1-9.4-68.1-21c-0.1-0.1-0.2-0.1-0.3-0.2c-0.9-0.5-1.8-1-2.6-1.5c-1-0.5-1.9-1.1-2.8-1.7c-0.9-0.5-1.7-1-2.6-1.6
			c-1.9-1.2-3.8-2.5-5.7-3.8l243.2-243.2c1.3,2,2.6,3.9,3.9,5.9c0.5,0.9,1.1,1.8,1.6,2.7c0.7,1.1,1.3,2.3,2,3.4
			c0.5,0.8,0.9,1.6,1.3,2.4c1,1.8,2,3.6,2.9,5.5c0.3,0.6,0.6,1.1,0.8,1.7c0,0,0,0,0,0c0.3,0.5,0.5,1,0.8,1.6
			c0.4,0.8,0.8,1.6,1.2,2.4c0.5,1,0.9,2,1.3,3c0.4,1,0.9,2,1.3,3c0.4,1,0.8,2,1.2,3c0.4,1,0.8,2,1.2,3c0.3,0.9,0.7,1.9,1,2.8
			c0,0.1,0.1,0.2,0.1,0.3c0.4,1,0.7,2,1,3.1c0.3,0.8,0.6,1.7,0.8,2.5c0,0.2,0.1,0.4,0.2,0.5c6.4,20.6,8.8,42,7.4,63
			C416.6,253.4,416.6,253.6,416.6,253.7z"/>
		<path class="st0" d="M82.3,313.7c-0.1-0.2-0.2-0.4-0.2-0.5C82.2,313.3,82.2,313.5,82.3,313.7z"/>
		<path class="st0" d="M84.3,318c-0.7-1.4-1.3-2.8-2-4.3C83,315.1,83.6,316.6,84.3,318z"/>
		<path class="st0" d="M82.1,313.2c-0.6-1.4-1.2-2.7-1.8-4.1C80.9,310.5,81.5,311.8,82.1,313.2z"/>
		<path class="st0" d="M70.8,205.8c0.1-0.2,0.1-0.5,0.2-0.7C70.9,205.3,70.8,205.5,70.8,205.8z"/>
		<path class="st0" d="M70.8,205.8C68.3,217.5,67,229.6,67,242c0,23.1,4.5,45.8,13.3,66.9C66.4,275.7,63.6,239.7,70.8,205.8z"/>
		<path class="st0" d="M70.9,205.1c0.3-1.6,0.7-3.1,1.1-4.7C71.6,201.9,71.2,203.5,70.9,205.1z"/>
		<path class="st0" d="M80.3,309.1c0-0.1,0-0.1-0.1-0.2C80.3,309,80.3,309.1,80.3,309.1z"/>
		<path class="st0" d="M72,200.3c0.7-2.8,1.4-5.6,2.3-8.3C73.4,194.8,72.7,197.5,72,200.3z"/>
		<path class="st0" d="M74.2,192c0.4-1.5,0.9-2.9,1.4-4.4C75.1,189.1,74.7,190.5,74.2,192z"/>
		<path class="st0" d="M75.6,187.6c0.1-0.2,0.1-0.4,0.2-0.7C75.7,187.2,75.7,187.4,75.6,187.6z"/>
		<path class="st0" d="M143.3,97.4c7.8-5.3,15.9-9.9,24.2-13.8c-43.1,20.3-76.6,57.7-91.7,103.4C87.4,151.8,110.3,119.9,143.3,97.4z
			"/>
		<path class="st0" d="M167.6,83.6C167.5,83.6,167.5,83.6,167.6,83.6C167.5,83.6,167.5,83.6,167.6,83.6z"/>
		<path class="st0" d="M171.9,81.6c-1.5,0.6-2.9,1.3-4.3,2C169,82.9,170.4,82.2,171.9,81.6z"/>
		<path class="st0" d="M202.5,71.5c2.1-0.5,4.3-0.9,6.4-1.3C206.7,70.5,204.6,71,202.5,71.5z"/>
		<path class="st0" d="M323.8,87.3c-1.5-0.8-3-1.5-4.4-2.3C320.8,85.7,322.3,86.5,323.8,87.3z"/>
		<path class="st0" d="M318.7,84.7C294.9,73.1,268.7,67,242,67c-10.6,0-20.9,0.9-31,2.7C247.2,63.2,285,68.2,318.7,84.7z"/>
		<path class="st0" d="M319.3,85c-0.2-0.1-0.4-0.2-0.6-0.3C318.9,84.8,319.1,84.9,319.3,85z"/>
		<path class="st0" d="M242,417c35.2,0,69.6-10.6,98.6-30.4C312.5,405.8,278.6,417,242,417c-1.2,0-2.4,0-3.6,0
			C239.6,417,240.8,417,242,417z"/>
		<path class="st0" d="M402.2,312.5c6.3-14.3,10.6-29.3,12.9-44.6C412.8,283.5,408.4,298.5,402.2,312.5z"/>
		<path class="st0" d="M70.8,205.8C68.3,217.5,67,229.6,67,242c0,23.1,4.5,45.8,13.3,66.9C66.4,275.7,63.6,239.7,70.8,205.8z"/>
		<path class="st0" d="M82.1,313.2c-0.6-1.4-1.2-2.7-1.8-4.1C80.9,310.5,81.5,311.8,82.1,313.2z"/>
		<path class="st0" d="M82.3,313.7c-0.1-0.2-0.2-0.4-0.2-0.5C82.2,313.3,82.2,313.5,82.3,313.7z"/>
		<path class="st0" d="M80.3,309.1c0-0.1,0-0.1-0.1-0.2C80.3,309,80.3,309.1,80.3,309.1z"/>
		<path class="st0" d="M70.9,205.1c0.3-1.6,0.7-3.1,1.1-4.7C71.6,201.9,71.2,203.5,70.9,205.1z"/>
		<path class="st0" d="M70.8,205.8c0.1-0.2,0.1-0.5,0.2-0.7C70.9,205.3,70.8,205.5,70.8,205.8z"/>
		<path class="st0" d="M84.3,318c-0.7-1.4-1.3-2.8-2-4.3C83,315.1,83.6,316.6,84.3,318z"/>
		<path class="st0" d="M72,200.3c0.7-2.8,1.4-5.6,2.3-8.3C73.4,194.8,72.7,197.5,72,200.3z"/>
		<path class="st0" d="M75.6,187.6c0.1-0.2,0.1-0.4,0.2-0.7C75.7,187.2,75.7,187.4,75.6,187.6z"/>
		<path class="st0" d="M143.3,97.4c7.8-5.3,15.9-9.9,24.2-13.8c-43.1,20.3-76.6,57.7-91.7,103.4C87.4,151.8,110.3,119.9,143.3,97.4z
			"/>
		<path class="st0" d="M74.2,192c0.4-1.5,0.9-2.9,1.4-4.4C75.1,189.1,74.7,190.5,74.2,192z"/>
		<path class="st0" d="M167.6,83.6C167.5,83.6,167.5,83.6,167.6,83.6C167.5,83.6,167.5,83.6,167.6,83.6z"/>
		<path class="st0" d="M171.9,81.6c-1.5,0.6-2.9,1.3-4.3,2C169,82.9,170.4,82.2,171.9,81.6z"/>
		<path class="st0" d="M202.5,71.5c2.1-0.5,4.3-0.9,6.4-1.3C206.7,70.5,204.6,71,202.5,71.5z"/>
		<path class="st0" d="M318.7,84.7C294.9,73.1,268.7,67,242,67c-10.6,0-20.9,0.9-31,2.7C247.2,63.2,285,68.2,318.7,84.7z"/>
		<path class="st0" d="M319.3,85c-0.2-0.1-0.4-0.2-0.6-0.3C318.9,84.8,319.1,84.9,319.3,85z"/>
		<path class="st0" d="M323.8,87.3c-1.5-0.8-3-1.5-4.4-2.3C320.8,85.7,322.3,86.5,323.8,87.3z"/>
		<path class="st0" d="M242,417c35.2,0,69.6-10.6,98.6-30.4C312.5,405.8,278.6,417,242,417c-1.2,0-2.4,0-3.6,0
			C239.6,417,240.8,417,242,417z"/>
		<path class="st0" d="M402.2,312.5c6.3-14.3,10.6-29.3,12.9-44.6C412.8,283.5,408.4,298.5,402.2,312.5z"/>
	</g>
</g>
</svg>
