<svg id="Camada_1" xmlns="http://www.w3.org/2000/svg" viewBox="0 0 484 484"><style>.st0{fill:#fff}</style><title>Inativar</title><g id="Camada_2_1_"><g id="Camada_1-2"><path class="st0" d="M242 0C108.3 0 0 108.3 0 242s108.3 242 242 242 242-108.3 242-242S375.7 0 242 0zM95.5 337.8c-.6-1-1.2-1.9-1.8-2.9-.6-.9-1.2-1.9-1.8-2.9-.5-.8-1-1.7-1.5-2.5-.5-.9-1.1-1.9-1.6-2.8v-.1c-.5-.9-1-1.9-1.5-2.9s-1-1.9-1.5-2.9-1-2-1.5-2.9c-.7-1.4-1.3-2.8-2-4.3-.1-.2-.2-.4-.2-.5-.6-1.3-1.2-2.7-1.8-4.1 0 0 0-.1-.1-.1-.6-1.4-1.1-2.7-1.6-4.1-.5-1.3-1-2.6-1.4-3.9-.3-.7-.5-1.5-.8-2.2-.5-1.4-.9-2.8-1.4-4.2-.2-.7-.4-1.3-.6-2l-.6-2.1c-.5-1.7-.9-3.4-1.4-5.1 0-.2-.1-.3-.1-.5-3.5-13.9-5.3-28.3-5.3-42.8 0-8 .5-15.8 1.6-23.4l.6-3.9c.2-1.5.5-2.9.7-4.3l.9-4.5c0-.2.1-.5.2-.7.3-1.6.7-3.2 1.1-4.7.7-2.8 1.4-5.6 2.3-8.3.4-1.5.9-2.9 1.4-4.3.1-.2.2-.4.2-.7.3-.9.6-1.9 1-2.8.1-.4.3-.8.4-1.3 0-.1 0-.1.1-.2 0-.1.1-.2.1-.3 14.8-40.8 44.3-74.6 82.1-94.9 1.3-.7 2.6-1.4 4-2.1.5-.3 1-.5 1.5-.8.8-.4 1.6-.8 2.5-1.2 1.4-.7 2.9-1.3 4.3-2 2-.9 3.9-1.7 5.9-2.5.7-.3 1.3-.5 2-.8.7-.3 1.3-.5 2-.8.7-.3 1.3-.5 2-.7.7-.2 1.3-.5 2-.7.7-.2 1.3-.5 2-.7.7-.2 1.4-.4 2-.7.7-.2 1.3-.4 2-.6.1 0 .1-.1.2-.1 1.3-.4 2.6-.8 4-1.1h.1c.6-.2 1.3-.3 1.9-.5 1.5-.4 2.9-.7 4.4-1.1 2.1-.5 4.3-.9 6.4-1.3.7-.1 1.4-.3 2.2-.4.8-.1 1.6-.3 2.5-.4 1.6-.3 3.2-.5 4.8-.7.6-.1 1.2-.2 1.8-.2 1.3-.2 2.7-.3 4-.5 1-.1 1.9-.2 2.9-.3.4 0 .9-.1 1.3-.1 2.1-.2 4.2-.3 6.3-.4h.1c2.4-.1 4.8-.1 7.2-.1H246.4c4 .1 7.9.3 11.8.7.3 0 .6 0 .8.1 1.2.1 2.4.2 3.6.4.3 0 .7.1 1 .1 2.3.3 4.6.6 6.9 1 .3 0 .5.1.8.1 1.1.2 2.2.4 3.4.6l1.5.3c3.4.7 6.8 1.5 10.2 2.4.7.2 1.3.4 2 .5.9.3 1.9.5 2.8.8 1.1.3 2.2.6 3.2 1 1 .3 2 .7 3.1 1 1 .3 2 .7 3 1 .6.2 1.3.5 1.9.7l4.8 1.8s.1 0 .2.1c2.3.9 4.5 1.9 6.8 2.9h.1c.7.3 1.5.7 2.2 1 .8.4 1.5.7 2.2 1.1l.6.3c.8.4 1.5.7 2.2 1.1.8.4 1.5.8 2.2 1.2 1 .5 1.9 1 2.9 1.6 1 .5 1.9 1.1 2.8 1.6 3.8 2.2 7.5 4.5 11.1 7L97.4 340.6c-.6-.9-1.3-1.9-1.9-2.8zm321.1-84.1c-.1 1.3-.2 2.6-.3 4-.1 1-.2 2-.3 2.9-.1.8-.2 1.7-.3 2.5 0 .4-.1.8-.1 1.2-.2 1.2-.3 2.4-.5 3.6-2.3 15.3-6.6 30.4-12.9 44.6-.4 1-.8 1.9-1.3 2.8-.4.8-.7 1.6-1.1 2.4-.2.4-.4.9-.6 1.3-.8 1.5-1.5 3-2.3 4.6-10.5 20.1-25.1 38.3-43.5 53.4-.5.5-1.1.9-1.6 1.3-1.1.9-2.3 1.8-3.4 2.7-.5.4-1 .8-1.5 1.1-1.3 1-2.5 1.9-3.8 2.8-.8.5-1.5 1.1-2.3 1.6-29.2 19.9-63.6 30.5-98.8 30.5h-3.6c-1 0-2.1 0-3.1-.1-2.3-.1-4.7-.2-7-.4-.9-.1-1.8-.1-2.7-.2-23.9-2.2-47.1-9.4-68.1-21-.1-.1-.2-.1-.3-.2-.9-.5-1.8-1-2.6-1.5-1-.5-1.9-1.1-2.8-1.7-.9-.5-1.7-1-2.6-1.6-1.9-1.2-3.8-2.5-5.7-3.8l243.2-243.2c1.3 2 2.6 3.9 3.9 5.9.5.9 1.1 1.8 1.6 2.7.7 1.1 1.3 2.3 2 3.4.5.8.9 1.6 1.3 2.4 1 1.8 2 3.6 2.9 5.5.3.6.6 1.1.8 1.7.3.5.5 1 .8 1.6l1.2 2.4c.5 1 .9 2 1.3 3s.9 2 1.3 3l1.2 3 1.2 3c.3.9.7 1.9 1 2.8 0 .1.1.2.1.3.4 1 .7 2 1 3.1.3.8.6 1.7.8 2.5 0 .2.1.4.2.5 6.4 20.6 8.8 42 7.4 63-.1.3-.1.5-.1.6z"/><path class="st0" d="M82.3 313.7c-.1-.2-.2-.4-.2-.5.1.1.1.3.2.5zM84.3 318c-.7-1.4-1.3-2.8-2-4.3.7 1.4 1.3 2.9 2 4.3zM82.1 313.2c-.6-1.4-1.2-2.7-1.8-4.1.6 1.4 1.2 2.7 1.8 4.1zM70.8 205.8c.1-.2.1-.5.2-.7-.1.2-.2.4-.2.7z"/><path class="st0" d="M70.8 205.8C68.3 217.5 67 229.6 67 242c0 23.1 4.5 45.8 13.3 66.9-13.9-33.2-16.7-69.2-9.5-103.1zM70.9 205.1c.3-1.6.7-3.1 1.1-4.7-.4 1.5-.8 3.1-1.1 4.7zM80.3 309.1c0-.1 0-.1-.1-.2.1.1.1.2.1.2zM72 200.3c.7-2.8 1.4-5.6 2.3-8.3-.9 2.8-1.6 5.5-2.3 8.3zM74.2 192c.4-1.5.9-2.9 1.4-4.4-.5 1.5-.9 2.9-1.4 4.4zM75.6 187.6c.1-.2.1-.4.2-.7-.1.3-.1.5-.2.7zM143.3 97.4c7.8-5.3 15.9-9.9 24.2-13.8-43.1 20.3-76.6 57.7-91.7 103.4 11.6-35.2 34.5-67.1 67.5-89.6zM167.6 83.6c-.1 0-.1 0 0 0-.1 0-.1 0 0 0zM171.9 81.6c-1.5.6-2.9 1.3-4.3 2 1.4-.7 2.8-1.4 4.3-2zM202.5 71.5c2.1-.5 4.3-.9 6.4-1.3-2.2.3-4.3.8-6.4 1.3zM323.8 87.3c-1.5-.8-3-1.5-4.4-2.3 1.4.7 2.9 1.5 4.4 2.3zM318.7 84.7C294.9 73.1 268.7 67 242 67c-10.6 0-20.9.9-31 2.7 36.2-6.5 74-1.5 107.7 15zM319.3 85l-.6-.3.6.3zM242 417c35.2 0 69.6-10.6 98.6-30.4-28.1 19.2-62 30.4-98.6 30.4h-3.6 3.6zM402.2 312.5c6.3-14.3 10.6-29.3 12.9-44.6-2.3 15.6-6.7 30.6-12.9 44.6z"/><path class="st0" d="M70.8 205.8C68.3 217.5 67 229.6 67 242c0 23.1 4.5 45.8 13.3 66.9-13.9-33.2-16.7-69.2-9.5-103.1zM82.1 313.2c-.6-1.4-1.2-2.7-1.8-4.1.6 1.4 1.2 2.7 1.8 4.1zM82.3 313.7c-.1-.2-.2-.4-.2-.5.1.1.1.3.2.5zM80.3 309.1c0-.1 0-.1-.1-.2.1.1.1.2.1.2zM70.9 205.1c.3-1.6.7-3.1 1.1-4.7-.4 1.5-.8 3.1-1.1 4.7z"/><path class="st0" d="M70.8 205.8c.1-.2.1-.5.2-.7-.1.2-.2.4-.2.7zM84.3 318c-.7-1.4-1.3-2.8-2-4.3.7 1.4 1.3 2.9 2 4.3zM72 200.3c.7-2.8 1.4-5.6 2.3-8.3-.9 2.8-1.6 5.5-2.3 8.3zM75.6 187.6c.1-.2.1-.4.2-.7-.1.3-.1.5-.2.7zM143.3 97.4c7.8-5.3 15.9-9.9 24.2-13.8-43.1 20.3-76.6 57.7-91.7 103.4 11.6-35.2 34.5-67.1 67.5-89.6zM74.2 192c.4-1.5.9-2.9 1.4-4.4-.5 1.5-.9 2.9-1.4 4.4zM167.6 83.6c-.1 0-.1 0 0 0-.1 0-.1 0 0 0zM171.9 81.6c-1.5.6-2.9 1.3-4.3 2 1.4-.7 2.8-1.4 4.3-2zM202.5 71.5c2.1-.5 4.3-.9 6.4-1.3-2.2.3-4.3.8-6.4 1.3zM318.7 84.7C294.9 73.1 268.7 67 242 67c-10.6 0-20.9.9-31 2.7 36.2-6.5 74-1.5 107.7 15zM319.3 85l-.6-.3.6.3zM323.8 87.3c-1.5-.8-3-1.5-4.4-2.3 1.4.7 2.9 1.5 4.4 2.3zM242 417c35.2 0 69.6-10.6 98.6-30.4-28.1 19.2-62 30.4-98.6 30.4h-3.6 3.6zM402.2 312.5c6.3-14.3 10.6-29.3 12.9-44.6-2.3 15.6-6.7 30.6-12.9 44.6z"/></g></g></svg>