<svg xmlns="http://www.w3.org/2000/svg" viewBox="0 0 410 580"><defs><style>.cls-1{fill:#fff}.cls-2{fill:none;stroke:#000;stroke-miterlimit:10;stroke-width:5px}</style></defs><title>Listas</title><g id="Camada_2" data-name="Camada 2"><g id="Camada_1-2" data-name="Camada 1"><rect class="cls-1" x=".5" y=".5" width="409" height="579" rx="52.68"/><path d="M356.82 1A52.24 52.24 0 0 1 409 53.18v473.64A52.24 52.24 0 0 1 356.82 579H53.18A52.24 52.24 0 0 1 1 526.82V53.18A52.24 52.24 0 0 1 53.18 1h303.64m0-1H53.18A53.18 53.18 0 0 0 0 53.18v473.64A53.18 53.18 0 0 0 53.18 580h303.64A53.18 53.18 0 0 0 410 526.82V53.18A53.18 53.18 0 0 0 356.82 0z"/><rect class="cls-1" x="54.5" y="78.5" width="143" height="143" rx="18.65"/><path d="M178.85 81A16.17 16.17 0 0 1 195 97.15v105.7A16.17 16.17 0 0 1 178.85 219H73.15A16.17 16.17 0 0 1 57 202.85V97.15A16.17 16.17 0 0 1 73.15 81h105.7m0-5H73.15A21.15 21.15 0 0 0 52 97.15v105.7A21.15 21.15 0 0 0 73.15 224h105.7A21.15 21.15 0 0 0 200 202.85V97.15A21.15 21.15 0 0 0 178.85 76z"/><path class="cls-2" d="M51.5 321.5h316M52 382.5h316M51.5 443.5h316M52 504.5h316"/></g></g></svg>