<svg xmlns="http://www.w3.org/2000/svg" viewBox="0 0 367 467"><defs><style>.cls-1{fill:#fff;}</style></defs><title>Pacientes</title><g id="Camada_2" data-name="Camada 2"><g id="Camada_1-2" data-name="Camada 1"><path class="cls-1" d="M325.4,0H41.6A41.59,41.59,0,0,0,0,41.6V425.4A41.59,41.59,0,0,0,41.6,467H325.4A41.59,41.59,0,0,0,367,425.4V41.6A41.59,41.59,0,0,0,325.4,0ZM184,86c43.84,0,79.5,45.31,79.5,101,0,27.28-8.44,52.85-23.77,72-15,18.71-34.77,29-55.73,29s-41-10.42-56-29.33C112.85,239.53,104.5,214.08,104.5,187,104.5,131.31,140.16,86,184,86ZM46.5,385a137,137,0,0,1,74.71-122c.17.23.35.45.53.68C138.29,284.51,160.4,296,184,296c23.44,0,45.45-11.37,62-32,.18-.22.36-.45.52-.67A137,137,0,0,1,320.5,385Z"/></g></g></svg>