<svg xmlns="http://www.w3.org/2000/svg" viewBox="0 0 367 467"><defs><style>.cls-1{fill:#fff}</style></defs><title>Pacientes</title><g id="Camada_2" data-name="Camada 2"><path class="cls-1" d="M325.4 0H41.6A41.59 41.59 0 0 0 0 41.6v383.8A41.59 41.59 0 0 0 41.6 467h283.8a41.59 41.59 0 0 0 41.6-41.6V41.6A41.59 41.59 0 0 0 325.4 0zM184 86c43.84 0 79.5 45.31 79.5 101 0 27.28-8.44 52.85-23.77 72-15 18.71-34.77 29-55.73 29s-41-10.42-56-29.33c-15.15-19.14-23.5-44.59-23.5-71.67 0-55.69 35.66-101 79.5-101zM46.5 385a137 137 0 0 1 74.71-122c.17.23.35.45.53.68C138.29 284.51 160.4 296 184 296c23.44 0 45.45-11.37 62-32 .18-.22.36-.45.52-.67A137 137 0 0 1 320.5 385z" id="Camada_1-2" data-name="Camada 1"/></g></svg>