<svg xmlns="http://www.w3.org/2000/svg" viewBox="0 0 400.89 540.18"><defs><style>.cls-1{fill:#fff}</style></defs><title>Telefone</title><g id="Camada_2" data-name="Camada 2"><path class="cls-1" d="M123.7 172l132.14 229a29.77 29.77 0 0 0 40.67 10.92l29.09-16.78a20.63 20.63 0 0 1 28.19 7.57l44.33 76.84a20.65 20.65 0 0 1-7.56 28.2l-18.9 10.9a160.54 160.54 0 0 1-219.28-58.84L21.5 233A160.54 160.54 0 0 1 80.35 13.67l18.9-10.9a20.64 20.64 0 0 1 28.19 7.56l43.83 76a20.65 20.65 0 0 1-7.56 28.2l-29.09 16.77A29.79 29.79 0 0 0 123.7 172z" id="Camada_1-2" data-name="Camada 1"/></g></svg>