<svg xmlns="http://www.w3.org/2000/svg" viewBox="0 0 427 591.04"><defs><style>.cls-1{fill:#fff;}</style></defs><title>Telescopio</title><g id="Camada_2" data-name="Camada 2"><g id="Camada_1-2" data-name="Camada 1"><rect class="cls-1" y="518.04" width="427" height="73" rx="5.43"/><path class="cls-1" d="M266.75,18.2l-9.92,87L252,147.7,237.26,277a7.24,7.24,0,0,1-8,6.38l-88.94-10.13a7.24,7.24,0,0,1-6.38-8L163.41,6.43a7.25,7.25,0,0,1,8-6.38l88.94,10.13A7.25,7.25,0,0,1,266.75,18.2Z"/><path class="cls-1" d="M215.78,306.61l-3.38,29.66a4.58,4.58,0,0,1-5.06,4l-58.47-6.66a4.58,4.58,0,0,1-4-5.07l3.38-29.65a4.57,4.57,0,0,1,5.06-4l58.47,6.66A4.57,4.57,0,0,1,215.78,306.61Z"/><rect class="cls-1" x="126" y="479.04" width="68" height="34" rx="6.76"/><rect class="cls-1" x="83" y="437.04" width="154" height="30" rx="6.18"/><path class="cls-1" d="M405,329.53c0,57.19-20.49,111.1-57.7,151.78a211.61,211.61,0,0,1-16.22,15.93H263.53c59.9-26.45,102.37-91.65,102.37-167.71,0-73.85-40-137.47-97.21-165.31L272.54,126a198.8,198.8,0,0,1,74.76,51.71C384.51,218.43,405,272.34,405,329.53Z"/></g></g></svg>